<?xml version="1.0" standalone="no"?>
<!DOCTYPE svg PUBLIC "-//W3C//DTD SVG 20010904//EN"
 "http://www.w3.org/TR/2001/REC-SVG-20010904/DTD/svg10.dtd">
<svg version="1.0" xmlns="http://www.w3.org/2000/svg"
 width="1067.000000pt" height="600.000000pt" viewBox="0 0 1067.000000 600.000000"
 preserveAspectRatio="xMidYMid meet">

<g transform="translate(0.000000,600.000000) scale(0.100000,-0.100000)"
fill="#000000" stroke="none">
<path d="M5685 5733 c-17 -9 -42 -15 -58 -14 -15 1 -38 -6 -52 -15 -13 -9 -39
-20 -57 -24 -62 -16 -108 -36 -131 -58 -13 -12 -36 -27 -52 -33 -17 -6 -45
-27 -62 -47 -18 -20 -53 -59 -78 -85 -25 -27 -45 -58 -45 -70 0 -12 -9 -40
-21 -61 -11 -21 -18 -44 -15 -52 3 -7 0 -28 -6 -45 -8 -23 -8 -37 0 -49 12
-19 8 -132 -8 -188 -6 -25 -23 -49 -48 -69 -43 -34 -74 -105 -54 -125 8 -8 16
-2 31 23 12 19 22 38 24 43 8 22 27 -8 27 -42 0 -26 -12 -55 -40 -97 -22 -33
-40 -65 -40 -73 0 -7 -20 -34 -45 -59 -24 -26 -47 -59 -50 -74 -7 -31 -41 -65
-70 -71 -11 -2 -21 -12 -24 -23 -2 -11 -12 -31 -22 -44 -11 -13 -19 -33 -19
-45 0 -11 -23 -50 -50 -85 -34 -44 -49 -73 -48 -90 1 -14 -7 -50 -16 -80 -27
-79 -26 -369 1 -421 7 -14 13 -52 13 -86 0 -51 4 -65 25 -88 14 -15 25 -35 25
-45 0 -10 9 -26 19 -35 11 -10 25 -30 31 -46 7 -16 21 -32 31 -35 24 -8 24
-12 -2 -54 -28 -46 -37 -152 -15 -170 9 -7 16 -18 16 -23 0 -21 55 -58 78 -53
13 3 30 1 38 -6 11 -9 18 -8 33 5 10 9 25 14 34 10 9 -3 28 3 43 15 15 12 32
21 39 21 19 0 39 29 50 74 8 30 16 41 30 42 182 9 236 20 284 56 13 10 37 18
52 18 16 0 37 4 47 9 9 5 42 21 74 35 31 15 87 53 125 84 38 32 84 69 103 83
37 28 151 92 154 87 1 -2 17 -22 34 -44 37 -49 39 -60 12 -74 -11 -6 -20 -20
-20 -32 0 -15 5 -19 20 -15 24 6 26 -6 4 -24 -9 -7 -43 -53 -75 -101 -61 -90
-118 -163 -183 -233 -20 -22 -47 -59 -58 -82 -12 -24 -25 -43 -30 -43 -5 0
-34 10 -66 21 -42 16 -82 22 -152 23 -60 1 -105 7 -123 16 -21 10 -35 11 -56
3 -16 -5 -50 -7 -80 -3 -48 6 -54 5 -69 -18 -9 -13 -31 -40 -48 -60 -26 -30
-32 -49 -37 -101 -5 -56 -3 -64 13 -68 11 -3 26 -16 34 -28 13 -20 22 -23 56
-20 22 2 40 2 40 -1 0 -3 -7 -21 -16 -42 -13 -31 -13 -44 -3 -77 6 -22 13 -46
15 -54 3 -9 14 -11 40 -6 21 3 41 2 49 -5 10 -8 29 -7 74 3 51 12 63 12 72 1
6 -8 16 -14 21 -14 5 0 20 -12 33 -27 21 -25 27 -27 52 -18 15 6 36 9 45 7 16
-3 16 -7 -3 -54 -11 -28 -29 -64 -39 -79 -11 -14 -25 -50 -31 -78 -6 -28 -15
-53 -20 -57 -5 -3 -9 -14 -9 -26 0 -15 -23 -77 -36 -96 -1 -2 -70 26 -83 35
-2 2 -5 20 -6 40 -3 47 -35 73 -99 83 -58 9 -76 -2 -76 -45 0 -19 -4 -35 -10
-35 -23 0 -120 50 -120 62 0 7 4 27 9 45 17 58 -14 75 -133 74 -62 -1 -69 -7
-63 -46 3 -18 3 -36 0 -39 -5 -4 -102 30 -112 40 -2 2 -5 21 -7 41 -1 21 -2
41 -3 45 -2 13 -69 48 -93 48 -14 0 -31 -7 -38 -15 -7 -8 -19 -15 -26 -15 -8
0 -19 -12 -24 -26 -6 -14 -13 -24 -18 -22 -59 29 -62 32 -62 62 0 39 -7 49
-48 70 -29 15 -37 15 -75 2 -29 -10 -43 -20 -45 -35 -3 -17 -10 -21 -41 -21
-20 0 -60 7 -88 15 -45 13 -53 20 -68 57 -44 111 -113 153 -239 146 -55 -2
-77 0 -81 9 -2 7 -16 18 -30 25 -44 20 -27 46 72 112 50 34 106 70 124 81 61
37 62 126 2 141 -26 7 -48 -6 -193 -108 -45 -32 -85 -58 -89 -58 -3 0 -23 14
-44 31 -41 34 -77 98 -77 139 0 81 -46 143 -147 196 -43 23 -82 51 -88 63 -11
23 -45 37 -69 28 -8 -3 -30 -1 -50 5 -32 10 -38 9 -50 -8 -8 -10 -12 -22 -10
-26 11 -17 -37 -100 -84 -147 -27 -27 -62 -72 -77 -98 -16 -26 -39 -62 -53
-80 -48 -65 13 -72 121 -14 112 60 112 60 141 3 14 -27 32 -52 41 -56 9 -3 60
-7 113 -8 53 0 81 -3 62 -5 -19 -3 -44 -13 -55 -23 -11 -10 -32 -22 -47 -25
-15 -4 -32 -13 -39 -21 -6 -8 -17 -14 -25 -14 -15 0 -34 -31 -34 -55 0 -9 -9
-28 -20 -42 -11 -14 -20 -39 -20 -55 0 -16 -7 -42 -15 -57 -15 -30 -10 -59 23
-128 14 -30 14 -35 -3 -53 -10 -11 -34 -23 -53 -26 -32 -6 -38 -3 -70 35 -41
49 -79 71 -124 71 -19 0 -44 7 -56 16 -34 23 -68 15 -65 -16 3 -36 -17 -140
-33 -171 -16 -32 -1 -52 33 -43 15 4 25 0 33 -15 9 -18 20 -21 63 -21 29 0 66
0 82 0 45 -2 156 19 172 31 21 18 26 4 13 -36 -19 -57 -8 -80 45 -95 42 -12
57 -31 35 -45 -5 -3 -14 -23 -20 -44 -5 -21 -21 -55 -35 -75 -15 -23 -25 -51
-25 -74 0 -20 -6 -57 -14 -82 l-13 -45 -54 -1 c-30 0 -92 -5 -139 -9 -112 -11
-131 -11 -157 -2 -26 9 -44 -17 -50 -73 -7 -68 -33 -178 -53 -225 -11 -25 -20
-55 -20 -64 0 -10 -11 -49 -25 -87 -14 -38 -25 -81 -25 -96 0 -15 -9 -50 -20
-78 -11 -28 -20 -67 -20 -88 0 -20 -14 -75 -30 -122 -16 -47 -30 -96 -30 -108
0 -13 -9 -56 -19 -95 -11 -40 -24 -92 -29 -117 -5 -25 -16 -72 -25 -105 -8
-33 -23 -96 -32 -140 -10 -44 -22 -88 -27 -98 -11 -22 -16 -42 -45 -199 l-5
-28 2901 0 2901 0 0 38 c0 20 -6 57 -14 82 -8 25 -22 72 -31 105 -9 33 -21 74
-27 90 -5 17 -14 50 -19 75 -6 25 -16 56 -24 70 -7 14 -16 48 -20 75 -4 28
-13 64 -20 80 -7 17 -17 59 -21 95 -4 37 -14 75 -24 87 -10 13 -21 43 -24 67
-4 24 -14 50 -21 56 -11 9 -15 36 -15 102 0 80 -3 93 -24 118 -18 22 -25 46
-31 104 -4 48 -13 84 -24 98 -11 14 -20 48 -23 84 -3 34 -13 72 -21 85 -9 13
-21 54 -28 92 -20 106 -34 112 -232 94 l-78 -7 -9 28 c-18 49 -37 77 -71 101
-33 22 -38 23 -139 15 -140 -12 -341 -9 -385 6 -33 11 -46 32 -26 45 5 3 13
20 17 37 3 18 13 42 20 53 52 81 98 508 74 690 -7 50 -14 119 -17 155 -3 36
-8 70 -13 75 -4 6 -11 29 -15 52 -4 23 -15 53 -26 67 -10 13 -19 31 -19 40 0
9 -11 39 -25 66 -14 27 -25 63 -25 79 0 18 -11 43 -27 63 -16 18 -37 50 -47
70 -10 21 -30 45 -42 53 -13 9 -24 20 -24 26 0 6 -13 27 -30 46 -16 18 -30 40
-30 48 0 8 -11 22 -24 30 -25 17 -36 54 -39 134 -2 34 -7 45 -22 51 -40 15
-48 32 -75 170 -15 74 -11 141 11 215 11 39 24 90 30 115 12 58 21 66 53 45
17 -11 36 -15 55 -12 15 3 32 2 37 -3 30 -30 291 6 336 46 13 12 33 27 46 33
12 6 22 20 22 30 0 10 9 26 20 36 11 10 20 26 20 36 0 10 7 24 15 33 8 8 15
30 15 50 0 19 4 37 9 40 4 3 14 53 21 111 12 104 7 202 -11 237 -5 9 -16 54
-25 100 -10 45 -28 103 -41 127 -12 24 -23 50 -23 57 0 7 -14 22 -30 34 -17
12 -37 38 -45 57 -30 71 -219 268 -268 279 -16 3 -46 21 -66 39 -20 18 -56 38
-81 45 -25 6 -59 20 -76 31 -18 11 -50 19 -75 19 -24 0 -53 7 -63 15 -12 9
-42 15 -72 15 -29 0 -64 4 -77 9 -13 5 -90 12 -170 14 -118 5 -148 3 -158 -9
-15 -18 -58 -18 -79 1 -14 13 -19 12 -45 -2z m375 -79 c30 -2 83 -5 117 -7 44
-2 67 -8 83 -22 13 -12 38 -20 68 -21 26 -2 65 -12 87 -23 21 -12 49 -21 60
-21 14 0 30 -14 46 -37 19 -30 34 -40 69 -49 34 -8 49 -18 63 -42 11 -18 25
-32 32 -32 23 0 63 -40 70 -70 4 -17 21 -41 39 -55 20 -15 38 -41 45 -64 8
-28 22 -45 46 -60 23 -13 35 -28 36 -43 2 -40 4 -44 22 -62 9 -10 17 -29 17
-42 0 -14 7 -38 15 -55 9 -16 16 -45 17 -65 1 -19 5 -37 9 -39 4 -3 10 -38 14
-79 6 -57 4 -80 -9 -104 -11 -21 -14 -48 -11 -94 3 -53 0 -68 -19 -98 -13 -19
-30 -47 -39 -62 -28 -45 -118 -77 -207 -73 -154 6 -215 21 -300 75 -8 5 -27
15 -41 22 -57 29 -109 74 -119 106 -7 17 -15 32 -20 32 -4 0 -18 19 -30 43
-12 23 -32 53 -45 67 -13 14 -26 42 -30 62 -4 20 -16 44 -26 54 -12 10 -19 30
-19 51 0 19 -5 43 -11 54 -5 11 -11 32 -12 47 -3 37 -28 35 -39 -3 -13 -48 2
-177 23 -200 9 -11 20 -40 22 -64 4 -38 18 -60 38 -61 4 0 16 -22 28 -50 12
-27 28 -53 36 -57 8 -5 21 -26 28 -48 10 -28 20 -41 36 -43 13 -2 31 -18 43
-38 14 -24 27 -34 45 -34 64 0 79 -41 43 -115 -11 -22 -19 -50 -20 -62 0 -12
-4 -24 -9 -27 -22 -14 -33 -334 -12 -360 5 -6 11 -29 14 -51 3 -22 10 -41 16
-43 6 -2 11 -8 11 -14 0 -14 -42 -47 -60 -48 -9 0 -51 -24 -94 -52 -43 -29
-85 -57 -93 -63 -11 -7 -17 -6 -20 3 -3 7 -19 26 -36 42 -26 24 -29 31 -18 44
11 13 10 17 -5 22 -11 3 -28 9 -39 13 -19 8 -80 -20 -190 -85 -22 -13 -49 -28
-60 -33 -11 -5 -31 -21 -45 -36 -39 -44 -140 -115 -162 -115 -27 0 -164 -47
-193 -66 -31 -20 -179 -20 -258 1 -32 8 -68 15 -80 15 -12 0 -33 9 -47 20 -14
11 -30 20 -36 20 -10 0 -78 47 -96 67 -70 75 -108 148 -108 206 0 24 -5 69
-11 98 -21 108 -10 313 20 392 64 167 99 233 152 288 22 23 48 54 57 68 9 14
27 34 40 45 47 38 172 267 172 315 0 16 9 36 20 46 21 19 26 50 10 60 -6 4 -8
72 -6 183 5 199 16 242 79 297 19 17 39 40 46 52 17 32 125 106 213 147 75 33
81 35 172 30 52 -2 105 0 118 5 21 8 101 6 238 -5z m384 -2127 c5 -31 13 -45
29 -52 12 -6 27 -25 33 -44 6 -19 18 -39 27 -46 9 -6 21 -23 26 -38 5 -14 22
-31 38 -39 18 -9 31 -25 38 -51 6 -21 16 -41 21 -45 19 -12 34 -49 34 -82 0
-17 10 -44 22 -61 21 -28 22 -32 10 -137 -20 -181 -41 -346 -48 -369 -5 -17
-2 -23 9 -23 18 0 27 -29 27 -88 0 -29 7 -53 20 -69 11 -15 20 -41 20 -60 0
-28 4 -34 18 -31 9 2 25 -7 36 -20 17 -22 18 -29 6 -100 -8 -42 -23 -97 -36
-122 -12 -25 -25 -66 -28 -92 -4 -25 -13 -52 -21 -58 -8 -7 -20 -30 -27 -52
-10 -32 -9 -41 2 -48 12 -7 12 -12 -2 -27 -9 -10 -20 -31 -24 -48 -13 -53 -53
-82 -120 -88 -32 -2 -104 -12 -159 -21 -142 -24 -169 -26 -266 -15 -66 7 -97
6 -131 -5 -25 -7 -59 -11 -77 -8 -17 2 -51 -2 -74 -11 -56 -20 -191 -17 -213
4 -8 9 -22 45 -30 80 -17 72 -12 202 11 254 7 17 25 82 40 145 29 126 63 227
95 291 l21 41 52 -6 c139 -17 159 -18 170 -7 21 21 -17 41 -101 52 -45 7 -82
16 -82 20 0 10 80 150 97 170 20 23 80 31 112 14 15 -7 32 -25 39 -39 8 -18
16 -24 29 -19 29 10 43 24 43 43 0 25 -80 70 -124 70 -20 0 -36 4 -36 9 0 5
28 34 62 65 52 47 68 56 102 58 23 1 50 2 61 3 27 2 65 -33 65 -60 0 -11 6
-29 14 -40 7 -11 16 -33 19 -50 3 -16 11 -52 17 -80 17 -73 14 -194 -5 -267
-10 -35 -20 -74 -23 -88 -3 -14 -11 -34 -18 -45 -8 -11 -14 -28 -14 -38 0 -11
-13 -31 -29 -46 -36 -34 -58 -105 -40 -128 9 -10 22 -13 43 -8 17 4 46 7 65 6
19 0 43 5 54 10 14 8 22 7 31 -7 16 -21 60 -13 93 18 21 20 24 20 40 6 18 -17
35 -21 66 -19 13 1 17 10 17 42 0 38 -2 41 -24 35 -13 -3 -36 1 -52 9 -30 15
-56 8 -73 -23 -9 -16 -11 -15 -33 6 -27 24 -48 28 -65 11 -14 -14 -56 -2 -47
13 4 6 7 27 6 47 -1 21 5 43 17 56 10 11 18 36 18 58 1 21 5 43 11 50 12 15
23 76 26 142 1 28 5 62 10 78 5 18 4 32 -4 42 -7 8 -10 27 -7 42 3 15 1 36 -5
46 -8 15 -4 25 16 46 14 15 26 34 26 42 0 7 9 25 20 39 11 14 20 34 20 45 0
11 14 43 30 70 24 40 30 62 30 108 0 44 -3 57 -15 57 -17 0 -25 -17 -50 -105
-10 -33 -31 -79 -46 -103 -16 -24 -29 -49 -29 -56 0 -17 -35 -48 -43 -39 -4 3
-7 18 -7 32 0 43 -45 99 -88 110 -48 12 -181 8 -209 -8 -12 -6 -30 -25 -40
-41 -9 -17 -21 -30 -25 -30 -17 0 -90 -75 -102 -104 -7 -17 -32 -53 -55 -79
-22 -27 -41 -54 -41 -62 0 -7 -9 -23 -19 -36 -18 -21 -21 -22 -34 -9 -9 8 -24
31 -34 50 -26 46 -54 47 -69 0 -15 -45 -35 -57 -68 -42 -33 15 -47 91 -22 125
50 68 49 67 36 82 -14 17 -46 20 -55 5 -9 -14 -68 -13 -83 2 -17 17 -15 59 3
85 34 48 143 52 188 7 14 -14 40 -25 68 -29 41 -6 49 -3 89 29 25 20 49 36 53
36 14 0 117 69 182 123 34 29 80 63 100 77 20 14 49 36 64 50 15 14 46 41 68
60 50 43 90 117 73 134 -9 8 -15 6 -24 -8 -44 -71 -121 -146 -152 -146 -1 0 0
26 3 58 4 37 12 63 24 75 22 21 24 45 4 70 -18 24 -10 44 21 51 13 4 45 22 70
41 25 19 51 35 58 35 7 0 24 10 38 23 46 42 80 67 88 62 4 -3 11 -24 14 -48z
m-361 -203 c3 -4 2 -15 -3 -24 -5 -10 -12 -46 -15 -81 -3 -44 -11 -69 -25 -84
-11 -12 -20 -29 -20 -38 0 -10 -10 -22 -22 -27 -13 -5 -48 -32 -78 -60 -65
-61 -104 -83 -130 -75 -16 5 -17 8 -4 33 8 15 44 63 80 107 35 44 84 107 108
140 88 119 93 124 109 109z m-1148 -78 c26 -21 28 -25 14 -39 -29 -28 -44 -77
-31 -98 21 -34 -31 -23 -67 13 -38 39 -40 79 -6 124 28 36 44 36 90 0z m-1648
-30 c4 -7 48 -33 98 -57 102 -50 118 -70 134 -165 13 -82 43 -139 91 -172 22
-15 39 -30 40 -34 0 -17 -32 -6 -52 17 -12 14 -49 39 -82 55 -51 26 -70 30
-139 30 l-80 0 -52 55 c-29 30 -62 55 -72 55 -10 0 -54 -16 -98 -35 -44 -19
-81 -35 -83 -35 -13 0 77 126 139 196 21 23 45 56 53 73 14 27 22 31 56 31 23
0 42 -6 47 -14z m666 -295 c6 -24 -10 -41 -40 -41 -13 0 -46 -21 -79 -51 -31
-28 -73 -58 -93 -66 -20 -8 -46 -24 -58 -36 -14 -12 -23 -16 -23 -8 0 24 150
151 178 151 6 0 29 16 52 35 48 40 56 42 63 16z m1381 -45 c-9 -15 -18 -47
-18 -70 -1 -29 -5 -42 -13 -39 -6 2 -38 -3 -71 -12 -56 -16 -61 -16 -86 0 -37
24 -35 69 5 118 29 35 34 37 87 37 31 0 64 5 72 10 10 6 19 5 28 -4 12 -12 11
-18 -4 -40z m1421 -118 c-4 -29 -7 -62 -7 -73 -1 -34 -19 -96 -27 -91 -11 7
20 216 32 216 6 0 7 -20 2 -52z m-3217 -11 c12 -5 22 -16 22 -22 0 -6 12 -22
26 -36 25 -23 26 -27 22 -120 -6 -113 -22 -145 -92 -179 -63 -30 -142 -26
-223 12 -15 8 -26 29 -39 74 -16 60 -16 65 2 114 24 68 66 113 138 149 60 31
93 33 144 8z m3275 -97 c-7 -8 -23 24 -22 45 0 15 3 13 13 -10 7 -16 11 -32 9
-35z m-1478 40 c3 -5 15 -10 25 -10 10 0 31 -11 45 -24 22 -21 25 -28 16 -45
-6 -11 -10 -25 -9 -32 5 -19 -50 -32 -107 -24 -50 6 -53 8 -59 40 -4 18 -1 44
5 58 16 36 70 60 84 37z m-1631 -56 c23 -9 20 -24 -4 -24 -11 0 -20 7 -20 15
0 17 2 18 24 9z m3073 -46 c-3 -8 -6 -5 -6 6 -1 11 2 17 5 13 3 -3 4 -12 1
-19z m-2967 -40 c14 1 46 4 73 8 51 7 117 -16 117 -40 0 -7 9 -21 20 -31 11
-10 20 -28 20 -41 0 -13 5 -26 10 -29 6 -3 10 -23 10 -44 0 -21 3 -41 7 -45 9
-9 33 -109 28 -115 -3 -2 -25 -3 -51 -3 -25 1 -58 -5 -73 -12 -17 -9 -84 -16
-206 -19 -183 -6 -230 -3 -219 15 4 5 1 21 -7 34 -16 31 -1 49 43 49 20 0 34
7 41 20 6 11 19 31 28 45 9 14 24 63 34 109 21 95 36 116 74 105 14 -4 37 -7
51 -6z m3020 -39 c0 -42 -14 -52 -25 -18 -9 26 2 72 15 64 6 -3 10 -24 10 -46z
m-3878 -104 c30 -5 41 -13 63 -50 37 -64 53 -69 121 -45 44 15 66 18 96 11 58
-13 56 -19 -9 -26 -32 -4 -69 -13 -83 -20 -60 -30 -216 -35 -257 -9 -12 8 -29
14 -37 14 -24 0 -25 13 -7 65 27 80 18 75 113 60z m1460 -2 c25 -22 23 -33 -6
-33 -31 0 -50 22 -34 38 15 15 18 15 40 -5z m-89 -84 c26 -11 58 -19 71 -19
16 0 23 -5 22 -17 0 -10 7 -19 19 -20 68 -11 105 -27 105 -44 0 -24 15 -32 38
-20 23 12 153 -9 197 -33 17 -9 50 -16 75 -16 28 0 56 -8 75 -20 17 -11 45
-20 64 -20 19 0 58 -11 87 -25 29 -14 70 -28 90 -31 21 -3 47 -12 58 -20 11
-8 37 -14 57 -14 20 0 61 -11 91 -25 29 -14 70 -28 91 -31 40 -7 44 -14 25
-44 -10 -15 -9 -22 4 -37 10 -10 14 -24 10 -30 -4 -7 -6 -50 -5 -96 l3 -84
-108 -7 c-175 -11 -302 -13 -397 -5 -152 13 -545 17 -582 7 -74 -20 -969 -28
-1067 -10 -86 17 -102 30 -109 95 -7 72 15 161 53 216 21 29 30 51 26 65 -3
12 0 34 7 49 10 24 16 27 40 23 16 -3 37 -2 47 4 11 6 59 4 141 -6 68 -8 135
-12 149 -8 14 4 77 7 140 8 84 1 124 6 148 18 24 13 40 14 65 7 48 -14 68 -11
74 10 3 11 14 22 25 25 20 5 21 10 15 96 l-7 90 58 -6 c31 -4 79 -15 105 -25z
m352 15 c25 -16 33 -48 16 -58 -14 -9 -61 12 -67 29 -5 13 11 45 23 45 2 0 15
-7 28 -16z m912 -59 c-19 -30 -22 -32 -25 -14 -4 22 25 62 39 53 5 -3 -1 -20
-14 -39z m-629 -17 c10 -10 17 -10 32 0 12 7 21 8 25 2 7 -12 -3 -68 -13 -74
-4 -2 -26 5 -49 15 -29 12 -43 24 -43 37 0 33 25 43 48 20z m-1486 -36 c3 -38
3 -38 -37 -40 -22 -1 -60 -2 -85 -2 -25 0 -58 -5 -73 -12 -37 -15 -50 -1 -36
38 13 32 19 34 142 33 26 0 55 5 65 10 9 6 18 11 18 11 1 0 4 -17 6 -38z
m1794 -57 c4 -8 14 -15 24 -15 21 0 32 -21 20 -39 -5 -9 -18 -11 -39 -6 -37 8
-44 17 -35 50 7 28 22 33 30 10z m275 -138 c-10 -9 -11 -8 -5 6 3 10 9 15 12
12 3 -3 0 -11 -7 -18z m1782 -267 c21 -23 27 -40 27 -74 0 -52 -10 -58 -92
-56 -29 1 -89 -2 -133 -8 -102 -12 -244 -7 -315 11 -30 8 -50 15 -44 16 6 1
25 15 43 32 26 24 31 36 26 57 l-5 27 122 2 c68 1 150 7 183 15 33 8 83 13
110 11 41 -2 55 -8 78 -33z"/>
<path d="M6257 5474 c-13 -14 -7 -53 10 -63 13 -7 17 -24 18 -75 0 -37 6 -71
13 -78 17 -17 15 -28 -7 -28 -16 0 -21 9 -26 48 -13 108 -42 156 -71 118 -6
-9 -16 -16 -21 -16 -13 0 -73 -182 -73 -220 0 -15 14 -54 31 -86 24 -46 30
-67 26 -97 -4 -32 -1 -40 19 -53 24 -16 44 -68 49 -129 2 -16 3 -33 4 -37 1
-5 8 -8 16 -8 19 0 29 -25 47 -108 10 -53 17 -66 40 -78 15 -8 34 -14 43 -14
9 0 18 -7 21 -15 4 -8 12 -15 18 -15 7 0 27 -16 46 -35 42 -43 87 -60 125 -45
22 8 31 7 45 -5 18 -17 164 -22 174 -6 3 4 17 6 30 4 20 -4 26 0 32 21 4 16
13 26 24 26 22 0 30 19 30 73 0 22 5 66 12 97 11 53 10 58 -13 89 -20 28 -24
46 -27 126 -3 79 -7 95 -25 113 -78 72 -98 97 -111 140 -7 26 -23 65 -35 87
-11 22 -21 45 -21 51 0 6 -10 23 -21 38 -16 20 -28 26 -44 22 -18 -5 -25 0
-35 24 -7 17 -28 44 -47 60 -27 24 -43 30 -82 30 -30 0 -53 5 -60 14 -7 8 -24
17 -39 20 -70 13 -108 16 -115 10z m115 -101 c20 -23 58 -98 58 -115 0 -7 -20
9 -45 35 -28 30 -45 58 -45 73 0 28 11 31 32 7z m157 -57 c31 -51 35 -76 14
-75 -12 0 -27 19 -45 58 -16 32 -28 64 -28 71 0 18 35 -15 59 -54z m-334 -51
c-3 -25 -1 -70 5 -101 15 -72 6 -80 -21 -19 -16 36 -19 57 -14 92 8 57 14 73
27 73 6 0 8 -17 3 -45z m243 -67 c7 -7 12 -19 12 -27 0 -11 -4 -10 -20 4 -21
19 -26 35 -12 35 4 0 13 -5 20 -12z m135 -3 c13 -12 28 -65 62 -222 3 -13 1
-23 -4 -23 -19 0 -50 52 -60 101 -6 27 -18 66 -26 85 -27 64 -11 98 28 59z
m-239 -36 c11 -54 7 -75 -19 -99 -28 -26 -30 -24 -40 58 -7 61 -2 72 29 72 18
0 25 -7 30 -31z m22 -146 c3 -16 10 -38 15 -51 5 -13 9 -28 9 -35 -1 -15 -50
84 -50 101 0 23 20 12 26 -15z m420 -88 c22 -22 25 -32 22 -82 l-3 -58 -44 4
c-40 2 -111 43 -111 62 0 16 34 18 50 4 10 -9 34 -18 54 -22 53 -8 58 17 12
67 -20 22 -36 42 -36 45 0 14 34 2 56 -20z m-301 5 c3 -5 3 -15 -1 -21 -6 -11
-23 6 -24 24 0 10 18 9 25 -3z m-66 -50 c12 -17 19 -35 16 -41 -4 -5 -15 6
-26 25 -30 56 -25 63 10 16z m267 -127 c-4 -4 -14 1 -22 11 -22 31 -17 43 8
19 12 -13 18 -26 14 -30z m-271 -60 c5 -19 3 -22 -12 -16 -38 13 -46 26 -27
40 20 14 28 9 39 -24z m376 -29 c21 -44 24 -57 14 -71 -17 -23 -41 -10 -49 27
-8 44 -8 100 2 99 4 0 19 -25 33 -55z m-119 -16 c33 -46 10 -52 -34 -8 -27 27
-38 45 -34 56 6 15 8 15 27 -2 12 -11 30 -31 41 -46z m208 31 c0 -11 -4 -17
-10 -14 -5 3 -10 13 -10 21 0 8 5 14 10 14 6 0 10 -9 10 -21z"/>
<path d="M5287 4416 c-8 -20 33 -66 58 -66 9 0 26 -6 38 -14 35 -22 88 -24
101 -3 12 19 1 46 -25 57 -8 4 -24 12 -36 18 -12 7 -47 15 -76 18 -45 5 -55 4
-60 -10z"/>
<path d="M3401 2553 c-14 -49 3 -70 46 -56 37 13 44 54 11 77 -34 24 -46 20
-57 -21z"/>
</g>
</svg>
